<svg width="28" height="20" viewBox="0 0 28 20" fill="none" xmlns="http://www.w3.org/2000/svg">
<path d="M0 4C0 2.93913 0.421427 1.92172 1.17157 1.17157C1.92172 0.421427 2.93913 0 4 0H24C25.0609 0 26.0783 0.421427 26.8284 1.17157C27.5786 1.92172 28 2.93913 28 4V16C28 17.0609 27.5786 18.0783 26.8284 18.8284C26.0783 19.5786 25.0609 20 24 20H4C2.93913 20 1.92172 19.5786 1.17157 18.8284C0.421427 18.0783 0 17.0609 0 16V4ZM26 4C26 3.46957 25.7893 2.96086 25.4142 2.58579C25.0391 2.21071 24.5304 2 24 2H4C3.46957 2 2.96086 2.21071 2.58579 2.58579C2.21071 2.96086 2 3.46957 2 4V6H26V4ZM2 16C2 16.5304 2.21071 17.0391 2.58579 17.4142C2.96086 17.7893 3.46957 18 4 18H24C24.5304 18 25.0391 17.7893 25.4142 17.4142C25.7893 17.0391 26 16.5304 26 16V8H2V16Z" fill="#666666"/>
</svg>
